<?xml version="1.0" encoding="UTF-8"?>
<svg id="Camada_1" xmlns="http://www.w3.org/2000/svg" version="1.1" viewBox="0 0 1463.19 1098.42">
  <!-- Generator: Adobe Illustrator 30.3.0, SVG Export Plug-In . SVG Version: 2.1.3 Build 182)  -->
  <defs>
    <style>
      .st0 {
        fill: #3b95d2;
      }

      .st0, .st1, .st2, .st3, .st4, .st5, .st6 {
        fill-rule: evenodd;
      }

      .st1 {
        fill: #60852d;
      }

      .st2 {
        fill: #ef7d00;
      }

      .st7 {
        fill: none;
      }

      .st3 {
        fill: #404a1c;
      }

      .st4 {
        fill: #f4a900;
      }

      .st5 {
        fill: #fff17c;
      }

      .st6 {
        fill: #c8e6fa;
      }
    </style>
  </defs>
  <path class="st2" d="M726.59,2c131.61,0,238.31,106.69,238.31,238.31s-106.69,238.31-238.31,238.31-238.31-106.69-238.31-238.31S594.98,2,726.59,2"/>
  <path class="st5" d="M1224.53,468.28c-17.23-173.32-141.68-315.95-313.28-378.62,30.23,37.01,49.55,83.28,53.06,133.9,82.87,54.54,143.25,136.66,165.66,231.99,32.62,3.1,64.05,5.58,94.55,12.73"/>
  <path class="st5" d="M321.16,452.69c23.21-95.2,84.33-177.02,167.84-230.99,4.01-51.97,24.7-99.26,56.71-136.55-178.68,60.14-308.94,203.87-326.05,382.12,32.58-9.13,66.19-10.66,101.5-14.58"/>
  <path class="st4" d="M489,221.69c-83.51,53.98-144.63,135.79-167.84,230.99,24.27-2.7,49.09-4.09,74.35-4.09,124.24,0,238.11,33.8,326.61,89.97,92.17-53.99,209.55-86.33,337.37-86.33,23.89,0,47.42,1.13,70.49,3.32-22.41-95.33-82.79-177.45-165.66-231.99.38,5.53.58,11.11.58,16.74,0,131.61-106.69,238.31-238.31,238.31s-238.31-106.69-238.31-238.31c0-6.26.24-12.47.72-18.61"/>
  <path class="st1" d="M0,569.78c45.85-8.16,37.97-11.24,141.58-15.1,103.61-3.85,307.25,42.56,418.31,116.95,34-49.81,84.39-91.19,160.98-133.86-84.8-56.49-197.8-88.61-332.55-89.14-138.86-.68-283.59,35.88-388.32,121.15"/>
  <path class="st3" d="M559.88,671.64c72.34,48.57,129.07,108.31,163.13,171.53,88.66-160.31,319.7-292.36,569.39-290.59,61.64.44,117.93,8.48,168.78,22.76-170.69-138.24-476.42-161.05-676.82-68.25-87.53,37.9-174.58,91.92-224.49,164.55"/>
  <path class="st0" d="M723.01,843.17c-34.06-63.22-90.79-122.96-163.13-171.53-15.69-9.18-31.51-19.19-49.17-28.34-5.79-2.91-11.71-5.76-17.74-8.54-27.86-12.34-60.84-21.67-104.32-22.68,23.66,164.25,166.84,290.55,339.93,290.55s316.11-126.17,339.89-290.29c-50.33,3.19-90.11,13.17-114.04,21.05-103.38,53.09-186.04,127.73-231.42,209.78"/>
  <path class="st6" d="M728.58,902.63c-173.09,0-316.27-126.3-339.93-290.55,43.47,1.01,76.46,10.34,104.32,22.68-6.07-2.81-12.26-5.55-18.54-8.24-37.83-12.01-84.77-19.56-161.55-14.95,10.2,202.11,195.01,363.15,421.49,363.15s411.02-160.8,421.47-362.71c-83.67-6.22-135.14,1.3-174.97,13.78,22.97-5.77,52.76-11.23,87.6-13.44-23.78,164.12-166.89,290.29-339.89,290.29"/>
  <rect class="st7" x="-126.23" y="-150.47" width="1700.79" height="1417.32"/>
</svg>